<mxfile host="65bd71144e">
    <diagram id="vyzGu6z69eQ5E0Z5b4vl" name="Page-1">
        <mxGraphModel dx="1143" dy="887" grid="1" gridSize="10" guides="1" tooltips="1" connect="1" arrows="1" fold="1" page="1" pageScale="1" pageWidth="850" pageHeight="1100" math="0" shadow="0">
            <root>
                <mxCell id="0"/>
                <mxCell id="1" parent="0"/>
                <mxCell id="2" value="&lt;h5&gt;input&lt;/h5&gt;" style="verticalLabelPosition=middle;verticalAlign=middle;html=1;shape=card;whiteSpace=wrap;size=20;arcSize=12;labelBackgroundColor=none;fontFamily=Tahoma;fillColor=#cce5ff;labelPosition=center;align=center;strokeColor=#36393d;fontColor=#312f2f;" vertex="1" parent="1">
                    <mxGeometry x="20" y="10" width="60" height="40" as="geometry"/>
                </mxCell>
                <mxCell id="3" value="&lt;h5&gt;output&lt;/h5&gt;" style="strokeWidth=2;html=1;shape=mxgraph.flowchart.document2;whiteSpace=wrap;size=0.25;labelBackgroundColor=none;fontFamily=Tahoma;fillColor=#cce5ff;strokeColor=#36393d;fontColor=#312f2f;" vertex="1" parent="1">
                    <mxGeometry x="20" y="70" width="60" height="40" as="geometry"/>
                </mxCell>
                <mxCell id="4" value="&lt;h5&gt;start / stop junction&lt;/h5&gt;" style="strokeWidth=2;html=1;shape=mxgraph.flowchart.start_1;whiteSpace=wrap;labelBackgroundColor=none;fontFamily=Tahoma;fillColor=#cce5ff;strokeColor=#36393d;fontColor=#312f2f;" vertex="1" parent="1">
                    <mxGeometry x="15" y="120" width="70" height="50" as="geometry"/>
                </mxCell>
                <mxCell id="5" value="&lt;h5&gt;&lt;font color=&quot;#1a1a1a&quot;&gt;process&lt;/font&gt;&lt;/h5&gt;" style="rounded=1;whiteSpace=wrap;html=1;absoluteArcSize=1;arcSize=14;strokeWidth=2;labelBackgroundColor=none;fontFamily=Tahoma;fillColor=#cce5ff;strokeColor=#36393d;" vertex="1" parent="1">
                    <mxGeometry x="10" y="180" width="80" height="50" as="geometry"/>
                </mxCell>
                <mxCell id="6" value="&lt;font color=&quot;#1a1a1a&quot; style=&quot;background-color: rgb(204, 229, 255);&quot;&gt;&lt;b&gt;condition&lt;/b&gt;&lt;/font&gt;" style="strokeWidth=2;html=1;shape=mxgraph.flowchart.decision;whiteSpace=wrap;labelBackgroundColor=#FFFFFF;fontFamily=Tahoma;fillColor=#CCE5FF;strokeColor=#36393d;" vertex="1" parent="1">
                    <mxGeometry x="10" y="240" width="80" height="80" as="geometry"/>
                </mxCell>
                <mxCell id="7" value="&lt;h5&gt;loop condition&lt;/h5&gt;" style="strokeWidth=2;html=1;shape=mxgraph.flowchart.start_1;whiteSpace=wrap;labelBackgroundColor=none;fontFamily=Tahoma;fillColor=#cce5ff;strokeColor=#36393d;fontColor=#312f2f;" vertex="1" parent="1">
                    <mxGeometry x="15" y="330" width="70" height="70" as="geometry"/>
                </mxCell>
                <mxCell id="11" style="edgeStyle=none;html=1;entryX=0.5;entryY=0;entryDx=0;entryDy=0;entryPerimeter=0;" edge="1" parent="1" source="8" target="10">
                    <mxGeometry relative="1" as="geometry"/>
                </mxCell>
                <mxCell id="8" value="&lt;h5&gt;START&lt;/h5&gt;" style="strokeWidth=2;html=1;shape=mxgraph.flowchart.start_1;whiteSpace=wrap;labelBackgroundColor=none;fontFamily=Tahoma;fillColor=#6a00ff;strokeColor=#3700CC;fontColor=#ffffff;" vertex="1" parent="1">
                    <mxGeometry x="285.75" y="20" width="110" height="70" as="geometry"/>
                </mxCell>
                <mxCell id="13" style="edgeStyle=none;html=1;entryX=0.5;entryY=0;entryDx=0;entryDy=0;entryPerimeter=0;" edge="1" parent="1" source="10" target="12">
                    <mxGeometry relative="1" as="geometry"/>
                </mxCell>
                <mxCell id="10" value="&lt;h5&gt;a,b&lt;/h5&gt;" style="verticalLabelPosition=middle;verticalAlign=middle;html=1;shape=card;whiteSpace=wrap;size=20;arcSize=12;labelBackgroundColor=none;fontFamily=Tahoma;fillColor=#6a00ff;labelPosition=center;align=center;strokeColor=#3700CC;fontColor=#ffffff;" vertex="1" parent="1">
                    <mxGeometry x="285.75" y="130" width="105" height="60" as="geometry"/>
                </mxCell>
                <mxCell id="15" style="edgeStyle=none;html=1;entryX=0.5;entryY=0;entryDx=0;entryDy=0;entryPerimeter=0;" edge="1" parent="1" source="12" target="14">
                    <mxGeometry relative="1" as="geometry"/>
                </mxCell>
                <mxCell id="20" style="edgeStyle=none;html=1;entryX=0;entryY=0.5;entryDx=0;entryDy=0;entryPerimeter=0;fontColor=#FFFFFF;" edge="1" parent="1" source="12" target="19">
                    <mxGeometry relative="1" as="geometry"/>
                </mxCell>
                <mxCell id="12" value="&lt;h5&gt;a &amp;lt;= b&lt;/h5&gt;" style="strokeWidth=2;html=1;shape=mxgraph.flowchart.start_1;whiteSpace=wrap;labelBackgroundColor=none;fontFamily=Tahoma;fillColor=#6a00ff;strokeColor=#3700CC;fontColor=#ffffff;" vertex="1" parent="1">
                    <mxGeometry x="293.75" y="230" width="87.5" height="90" as="geometry"/>
                </mxCell>
                <mxCell id="17" style="edgeStyle=none;html=1;" edge="1" parent="1" source="14" target="16">
                    <mxGeometry relative="1" as="geometry"/>
                </mxCell>
                <mxCell id="14" value="&lt;h5&gt;b&lt;/h5&gt;" style="strokeWidth=2;html=1;shape=mxgraph.flowchart.document2;whiteSpace=wrap;size=0.25;labelBackgroundColor=none;fontFamily=Tahoma;fillColor=#6a00ff;strokeColor=#3700CC;fontColor=#ffffff;" vertex="1" parent="1">
                    <mxGeometry x="290" y="360" width="95" height="60" as="geometry"/>
                </mxCell>
                <mxCell id="18" style="edgeStyle=none;html=1;entryX=0;entryY=0.5;entryDx=0;entryDy=0;entryPerimeter=0;fontColor=#FFFFFF;" edge="1" parent="1" source="16" target="12">
                    <mxGeometry relative="1" as="geometry">
                        <Array as="points">
                            <mxPoint x="195.75" y="480"/>
                            <mxPoint x="195.75" y="275"/>
                        </Array>
                    </mxGeometry>
                </mxCell>
                <mxCell id="16" value="&lt;h5&gt;b++&lt;/h5&gt;" style="rounded=1;whiteSpace=wrap;html=1;absoluteArcSize=1;arcSize=14;strokeWidth=2;labelBackgroundColor=none;fontFamily=Tahoma;fillColor=#6a00ff;strokeColor=#3700CC;fontColor=#ffffff;" vertex="1" parent="1">
                    <mxGeometry x="285.75" y="450" width="99.25" height="60" as="geometry"/>
                </mxCell>
                <mxCell id="19" value="&lt;h5&gt;STOP&lt;/h5&gt;" style="strokeWidth=2;html=1;shape=mxgraph.flowchart.start_1;whiteSpace=wrap;labelBackgroundColor=none;fontFamily=Tahoma;fillColor=#6a00ff;strokeColor=#3700CC;fontColor=#ffffff;" vertex="1" parent="1">
                    <mxGeometry x="455.75" y="240" width="110" height="70" as="geometry"/>
                </mxCell>
                <mxCell id="21" value="Print all of the numbers &lt;br&gt;between a to b included" style="text;html=1;align=center;verticalAlign=middle;resizable=0;points=[];autosize=1;strokeColor=none;fillColor=none;fontColor=#FFFFFF;" vertex="1" parent="1">
                    <mxGeometry x="140" y="20" width="150" height="40" as="geometry"/>
                </mxCell>
                <mxCell id="23" value="get numbers untill 0 is submitted,&lt;br&gt;then print the highest number" style="text;html=1;align=center;verticalAlign=middle;resizable=0;points=[];autosize=1;strokeColor=none;fillColor=none;fontColor=#FFFFFF;" vertex="1" parent="1">
                    <mxGeometry x="870" y="20" width="200" height="40" as="geometry"/>
                </mxCell>
                <mxCell id="42" style="edgeStyle=none;html=1;entryX=0.5;entryY=0;entryDx=0;entryDy=0;entryPerimeter=0;fontColor=#FFFFFF;" edge="1" parent="1" source="24" target="25">
                    <mxGeometry relative="1" as="geometry"/>
                </mxCell>
                <mxCell id="24" value="&lt;h5&gt;START&lt;/h5&gt;" style="strokeWidth=2;html=1;shape=mxgraph.flowchart.start_1;whiteSpace=wrap;labelBackgroundColor=none;fontFamily=Tahoma;fillColor=#0050ef;strokeColor=#001DBC;fontColor=#ffffff;" vertex="1" parent="1">
                    <mxGeometry x="1058" y="90" width="110" height="70" as="geometry"/>
                </mxCell>
                <mxCell id="45" style="edgeStyle=none;html=1;fontColor=#FFFFFF;" edge="1" parent="1" source="25" target="44">
                    <mxGeometry relative="1" as="geometry"/>
                </mxCell>
                <mxCell id="25" value="&lt;h5&gt;num&lt;/h5&gt;" style="verticalLabelPosition=middle;verticalAlign=middle;html=1;shape=card;whiteSpace=wrap;size=20;arcSize=12;labelBackgroundColor=none;fontFamily=Tahoma;fillColor=#0050ef;labelPosition=center;align=center;strokeColor=#001DBC;fontColor=#ffffff;" vertex="1" parent="1">
                    <mxGeometry x="1060.5" y="200" width="105" height="70" as="geometry"/>
                </mxCell>
                <mxCell id="59" style="edgeStyle=none;html=1;fontColor=#FFFFFF;exitX=0;exitY=0.5;exitDx=0;exitDy=0;entryX=0;entryY=0;entryDx=0;entryDy=45;entryPerimeter=0;" edge="1" parent="1" source="29" target="57">
                    <mxGeometry relative="1" as="geometry">
                        <mxPoint x="908" y="460" as="targetPoint"/>
                        <Array as="points">
                            <mxPoint x="880" y="775"/>
                            <mxPoint x="880" y="465"/>
                        </Array>
                    </mxGeometry>
                </mxCell>
                <mxCell id="29" value="&lt;h5&gt;highest =num&lt;/h5&gt;" style="rounded=1;whiteSpace=wrap;html=1;absoluteArcSize=1;arcSize=14;strokeWidth=2;labelBackgroundColor=none;fontFamily=Tahoma;fillColor=#0050ef;strokeColor=#001DBC;fontColor=#ffffff;" vertex="1" parent="1">
                    <mxGeometry x="950.8800000000001" y="740" width="107.12" height="70" as="geometry"/>
                </mxCell>
                <mxCell id="48" style="edgeStyle=none;html=1;entryX=0;entryY=0.5;entryDx=0;entryDy=0;entryPerimeter=0;fontColor=#FFFFFF;" edge="1" parent="1" source="31" target="47">
                    <mxGeometry relative="1" as="geometry"/>
                </mxCell>
                <mxCell id="50" style="edgeStyle=none;html=1;entryX=0.992;entryY=0.717;entryDx=0;entryDy=0;entryPerimeter=0;fontColor=#FFFFFF;exitX=0.038;exitY=0.663;exitDx=0;exitDy=0;exitPerimeter=0;" edge="1" parent="1" source="31" target="57">
                    <mxGeometry relative="1" as="geometry"/>
                </mxCell>
                <mxCell id="31" value="&lt;h5&gt;num != 0&lt;/h5&gt;" style="strokeWidth=2;html=1;shape=mxgraph.flowchart.start_1;whiteSpace=wrap;labelBackgroundColor=none;fontFamily=Tahoma;fillColor=#0050ef;strokeColor=#001DBC;fontColor=#ffffff;" vertex="1" parent="1">
                    <mxGeometry x="1069.25" y="410" width="87.5" height="90" as="geometry"/>
                </mxCell>
                <mxCell id="34" value="&lt;h5&gt;STOP&lt;/h5&gt;" style="strokeWidth=2;html=1;shape=mxgraph.flowchart.start_1;whiteSpace=wrap;labelBackgroundColor=none;fontFamily=Tahoma;fillColor=#0050ef;strokeColor=#001DBC;fontColor=#ffffff;" vertex="1" parent="1">
                    <mxGeometry x="1353.75" y="420" width="110" height="70" as="geometry"/>
                </mxCell>
                <mxCell id="56" style="edgeStyle=none;html=1;fontColor=#FFFFFF;exitX=0;exitY=0.5;exitDx=0;exitDy=0;exitPerimeter=0;" edge="1" parent="1" source="37" target="29">
                    <mxGeometry relative="1" as="geometry">
                        <Array as="points">
                            <mxPoint x="1004" y="620"/>
                        </Array>
                    </mxGeometry>
                </mxCell>
                <mxCell id="61" style="edgeStyle=none;html=1;entryX=0.5;entryY=1;entryDx=0;entryDy=0;entryPerimeter=0;fontColor=#FFFFFF;exitX=1;exitY=0.5;exitDx=0;exitDy=0;exitPerimeter=0;" edge="1" parent="1" source="37" target="57">
                    <mxGeometry relative="1" as="geometry">
                        <Array as="points">
                            <mxPoint x="1260" y="620"/>
                            <mxPoint x="1258" y="530"/>
                            <mxPoint x="970" y="530"/>
                        </Array>
                    </mxGeometry>
                </mxCell>
                <mxCell id="37" value="&lt;b style=&quot;background-color: rgb(0, 80, 239);&quot;&gt;highest &amp;lt; num&lt;/b&gt;" style="strokeWidth=2;html=1;shape=mxgraph.flowchart.decision;whiteSpace=wrap;labelBackgroundColor=#FFFFFF;fontFamily=Tahoma;fillColor=#0050ef;strokeColor=#001DBC;fontColor=#ffffff;" vertex="1" parent="1">
                    <mxGeometry x="1065.5" y="570" width="100" height="100" as="geometry"/>
                </mxCell>
                <mxCell id="46" style="edgeStyle=none;html=1;fontColor=#FFFFFF;" edge="1" parent="1" source="44" target="31">
                    <mxGeometry relative="1" as="geometry"/>
                </mxCell>
                <mxCell id="44" value="&lt;h5&gt;highest =num&lt;/h5&gt;" style="rounded=1;whiteSpace=wrap;html=1;absoluteArcSize=1;arcSize=14;strokeWidth=2;labelBackgroundColor=none;fontFamily=Tahoma;fillColor=#0050ef;strokeColor=#001DBC;fontColor=#ffffff;" vertex="1" parent="1">
                    <mxGeometry x="1059.44" y="300" width="107.12" height="70" as="geometry"/>
                </mxCell>
                <mxCell id="49" style="edgeStyle=none;html=1;entryX=0;entryY=0.5;entryDx=0;entryDy=0;entryPerimeter=0;fontColor=#FFFFFF;" edge="1" parent="1" source="47" target="34">
                    <mxGeometry relative="1" as="geometry"/>
                </mxCell>
                <mxCell id="47" value="&lt;h5&gt;highest&lt;/h5&gt;" style="strokeWidth=2;html=1;shape=mxgraph.flowchart.document2;whiteSpace=wrap;size=0.25;labelBackgroundColor=none;fontFamily=Tahoma;fillColor=#0050ef;strokeColor=#001DBC;fontColor=#ffffff;" vertex="1" parent="1">
                    <mxGeometry x="1208" y="425" width="95" height="60" as="geometry"/>
                </mxCell>
                <mxCell id="60" style="edgeStyle=none;html=1;fontColor=#FFFFFF;" edge="1" parent="1" source="57" target="31">
                    <mxGeometry relative="1" as="geometry"/>
                </mxCell>
                <mxCell id="89" style="edgeStyle=none;html=1;strokeColor=#FFFFFF;fontColor=#FFFFFF;exitX=0.5;exitY=1;exitDx=0;exitDy=0;exitPerimeter=0;" edge="1" parent="1" source="57">
                    <mxGeometry relative="1" as="geometry">
                        <mxPoint x="1116" y="570" as="targetPoint"/>
                        <Array as="points">
                            <mxPoint x="970" y="550"/>
                            <mxPoint x="1116" y="550"/>
                        </Array>
                    </mxGeometry>
                </mxCell>
                <mxCell id="57" value="&lt;h5&gt;num&lt;/h5&gt;" style="verticalLabelPosition=middle;verticalAlign=middle;html=1;shape=card;whiteSpace=wrap;size=20;arcSize=12;labelBackgroundColor=none;fontFamily=Tahoma;fillColor=#0050ef;labelPosition=center;align=center;strokeColor=#001DBC;fontColor=#ffffff;" vertex="1" parent="1">
                    <mxGeometry x="917.5" y="420" width="105" height="70" as="geometry"/>
                </mxCell>
                <mxCell id="62" value="get numbers untill 0 is submitted,&lt;br&gt;then print the highest number and the lowest number" style="text;html=1;align=center;verticalAlign=middle;resizable=0;points=[];autosize=1;strokeColor=none;fillColor=none;fontColor=#FFFFFF;" vertex="1" parent="1">
                    <mxGeometry x="10" y="610" width="300" height="40" as="geometry"/>
                </mxCell>
                <mxCell id="64" style="edgeStyle=none;html=1;entryX=0.5;entryY=0;entryDx=0;entryDy=0;entryPerimeter=0;fontColor=#FFFFFF;fillColor=#008a00;strokeColor=#FFFFFF;" edge="1" parent="1" source="65" target="67">
                    <mxGeometry relative="1" as="geometry"/>
                </mxCell>
                <mxCell id="65" value="&lt;h5&gt;START&lt;/h5&gt;" style="strokeWidth=2;html=1;shape=mxgraph.flowchart.start_1;whiteSpace=wrap;labelBackgroundColor=none;fontFamily=Tahoma;fillColor=#008a00;strokeColor=#005700;fontColor=#ffffff;" vertex="1" parent="1">
                    <mxGeometry x="256.88" y="660" width="110" height="70" as="geometry"/>
                </mxCell>
                <mxCell id="66" style="edgeStyle=none;html=1;fontColor=#FFFFFF;fillColor=#008a00;strokeColor=#FFFFFF;" edge="1" parent="1" source="67" target="78">
                    <mxGeometry relative="1" as="geometry"/>
                </mxCell>
                <mxCell id="67" value="&lt;h5&gt;num&lt;/h5&gt;" style="verticalLabelPosition=middle;verticalAlign=middle;html=1;shape=card;whiteSpace=wrap;size=20;arcSize=12;labelBackgroundColor=none;fontFamily=Tahoma;fillColor=#008a00;labelPosition=center;align=center;strokeColor=#005700;fontColor=#ffffff;" vertex="1" parent="1">
                    <mxGeometry x="259.38" y="770" width="105" height="70" as="geometry"/>
                </mxCell>
                <mxCell id="68" style="edgeStyle=none;html=1;fontColor=#FFFFFF;exitX=0;exitY=0.5;exitDx=0;exitDy=0;entryX=0;entryY=0;entryDx=0;entryDy=45;entryPerimeter=0;fillColor=#008a00;strokeColor=#FFFFFF;" edge="1" parent="1" source="69" target="82">
                    <mxGeometry relative="1" as="geometry">
                        <mxPoint x="106.88" y="1030" as="targetPoint"/>
                        <Array as="points">
                            <mxPoint x="78.88" y="1315"/>
                            <mxPoint x="78.88" y="1035"/>
                        </Array>
                    </mxGeometry>
                </mxCell>
                <mxCell id="69" value="&lt;h5&gt;highest =num&lt;/h5&gt;" style="rounded=1;whiteSpace=wrap;html=1;absoluteArcSize=1;arcSize=14;strokeWidth=2;labelBackgroundColor=none;fontFamily=Tahoma;fillColor=#008a00;strokeColor=#005700;fontColor=#ffffff;" vertex="1" parent="1">
                    <mxGeometry x="143.32000000000005" y="1280" width="107.12" height="70" as="geometry"/>
                </mxCell>
                <mxCell id="70" style="edgeStyle=none;html=1;entryX=0;entryY=0.5;entryDx=0;entryDy=0;entryPerimeter=0;fontColor=#FFFFFF;fillColor=#008a00;strokeColor=#FFFFFF;" edge="1" parent="1" source="72" target="80">
                    <mxGeometry relative="1" as="geometry"/>
                </mxCell>
                <mxCell id="71" style="edgeStyle=none;html=1;fontColor=#FFFFFF;fillColor=#008a00;strokeColor=#FFFFFF;" edge="1" parent="1" source="72" target="82">
                    <mxGeometry relative="1" as="geometry"/>
                </mxCell>
                <mxCell id="72" value="&lt;h5&gt;num != 0&lt;/h5&gt;" style="strokeWidth=2;html=1;shape=mxgraph.flowchart.start_1;whiteSpace=wrap;labelBackgroundColor=none;fontFamily=Tahoma;fillColor=#008a00;strokeColor=#005700;fontColor=#ffffff;" vertex="1" parent="1">
                    <mxGeometry x="268.13" y="980" width="87.5" height="90" as="geometry"/>
                </mxCell>
                <mxCell id="73" value="&lt;h5&gt;STOP&lt;/h5&gt;" style="strokeWidth=2;html=1;shape=mxgraph.flowchart.start_1;whiteSpace=wrap;labelBackgroundColor=none;fontFamily=Tahoma;fillColor=#008a00;strokeColor=#005700;fontColor=#ffffff;" vertex="1" parent="1">
                    <mxGeometry x="552.63" y="990" width="110" height="70" as="geometry"/>
                </mxCell>
                <mxCell id="74" style="edgeStyle=none;html=1;fontColor=#FFFFFF;exitX=0;exitY=0.5;exitDx=0;exitDy=0;exitPerimeter=0;fillColor=#008a00;strokeColor=#FFFFFF;" edge="1" parent="1" source="76" target="69">
                    <mxGeometry relative="1" as="geometry">
                        <Array as="points">
                            <mxPoint x="196.88" y="1170"/>
                        </Array>
                    </mxGeometry>
                </mxCell>
                <mxCell id="84" style="edgeStyle=none;html=1;entryX=0;entryY=0.5;entryDx=0;entryDy=0;entryPerimeter=0;fontColor=#FFFFFF;" edge="1" parent="1" source="76" target="83">
                    <mxGeometry relative="1" as="geometry"/>
                </mxCell>
                <mxCell id="76" value="&lt;b style=&quot;background-color: rgb(0, 138, 0);&quot;&gt;highest &amp;lt; num&lt;/b&gt;" style="strokeWidth=2;html=1;shape=mxgraph.flowchart.decision;whiteSpace=wrap;labelBackgroundColor=#FFFFFF;fontFamily=Tahoma;fillColor=#008a00;strokeColor=none;fontColor=#ffffff;" vertex="1" parent="1">
                    <mxGeometry x="261.88" y="1120" width="100" height="100" as="geometry"/>
                </mxCell>
                <mxCell id="77" style="edgeStyle=none;html=1;fontColor=#FFFFFF;fillColor=#008a00;strokeColor=#FFFFFF;" edge="1" parent="1" source="78" target="72">
                    <mxGeometry relative="1" as="geometry"/>
                </mxCell>
                <mxCell id="78" value="&lt;h5&gt;highest =num lowest = num&lt;/h5&gt;" style="rounded=1;whiteSpace=wrap;html=1;absoluteArcSize=1;arcSize=14;strokeWidth=2;labelBackgroundColor=none;fontFamily=Tahoma;fillColor=#008a00;strokeColor=#005700;fontColor=#ffffff;" vertex="1" parent="1">
                    <mxGeometry x="258.32000000000005" y="870" width="107.12" height="70" as="geometry"/>
                </mxCell>
                <mxCell id="79" style="edgeStyle=none;html=1;entryX=0;entryY=0.5;entryDx=0;entryDy=0;entryPerimeter=0;fontColor=#FFFFFF;fillColor=#008a00;strokeColor=#FFFFFF;" edge="1" parent="1" source="80" target="73">
                    <mxGeometry relative="1" as="geometry"/>
                </mxCell>
                <mxCell id="80" value="&lt;h5&gt;highest, lowest&lt;/h5&gt;" style="strokeWidth=2;html=1;shape=mxgraph.flowchart.document2;whiteSpace=wrap;size=0.25;labelBackgroundColor=none;fontFamily=Tahoma;fillColor=#008a00;strokeColor=#005700;fontColor=#ffffff;" vertex="1" parent="1">
                    <mxGeometry x="406.88" y="995" width="95" height="60" as="geometry"/>
                </mxCell>
                <mxCell id="81" style="edgeStyle=none;html=1;fontColor=#FFFFFF;fillColor=#008a00;strokeColor=#FFFFFF;" edge="1" parent="1" source="82" target="72">
                    <mxGeometry relative="1" as="geometry"/>
                </mxCell>
                <mxCell id="90" style="edgeStyle=none;html=1;entryX=0.5;entryY=0;entryDx=0;entryDy=0;entryPerimeter=0;strokeColor=#FFFFFF;fontColor=#FFFFFF;exitX=0.5;exitY=1;exitDx=0;exitDy=0;exitPerimeter=0;" edge="1" parent="1" source="82" target="76">
                    <mxGeometry relative="1" as="geometry">
                        <Array as="points">
                            <mxPoint x="169" y="1100"/>
                            <mxPoint x="312" y="1100"/>
                        </Array>
                    </mxGeometry>
                </mxCell>
                <mxCell id="82" value="&lt;h5&gt;num&lt;/h5&gt;" style="verticalLabelPosition=middle;verticalAlign=middle;html=1;shape=card;whiteSpace=wrap;size=20;arcSize=12;labelBackgroundColor=none;fontFamily=Tahoma;fillColor=#008a00;labelPosition=center;align=center;strokeColor=#005700;fontColor=#ffffff;" vertex="1" parent="1">
                    <mxGeometry x="116.38" y="990" width="105" height="70" as="geometry"/>
                </mxCell>
                <mxCell id="86" style="edgeStyle=none;html=1;entryX=0.5;entryY=0;entryDx=0;entryDy=0;fontColor=#FFFFFF;" edge="1" parent="1" source="83" target="85">
                    <mxGeometry relative="1" as="geometry">
                        <Array as="points">
                            <mxPoint x="644" y="1170"/>
                        </Array>
                    </mxGeometry>
                </mxCell>
                <mxCell id="88" style="edgeStyle=none;html=1;entryX=0;entryY=0.5;entryDx=0;entryDy=0;entryPerimeter=0;strokeColor=#FFFFFF;fontColor=#FFFFFF;exitX=0;exitY=0.5;exitDx=0;exitDy=0;exitPerimeter=0;" edge="1" parent="1" source="83" target="72">
                    <mxGeometry relative="1" as="geometry">
                        <Array as="points">
                            <mxPoint x="240" y="1170"/>
                            <mxPoint x="240" y="1025"/>
                        </Array>
                    </mxGeometry>
                </mxCell>
                <mxCell id="83" value="&lt;span style=&quot;background-color: rgb(0, 138, 0);&quot;&gt;&lt;b&gt;lowest &amp;gt; num&lt;/b&gt;&lt;/span&gt;" style="strokeWidth=2;html=1;shape=mxgraph.flowchart.decision;whiteSpace=wrap;labelBackgroundColor=#FFFFFF;fontFamily=Tahoma;fillColor=#008a00;strokeColor=none;fontColor=#ffffff;" vertex="1" parent="1">
                    <mxGeometry x="452.63" y="1120" width="100" height="100" as="geometry"/>
                </mxCell>
                <mxCell id="87" style="edgeStyle=none;html=1;entryX=0;entryY=0;entryDx=0;entryDy=45;entryPerimeter=0;strokeColor=#FFFFFF;fontColor=#FFFFFF;" edge="1" parent="1" source="85" target="82">
                    <mxGeometry relative="1" as="geometry">
                        <Array as="points">
                            <mxPoint x="644" y="1410"/>
                            <mxPoint x="40" y="1410"/>
                            <mxPoint x="40" y="1035"/>
                        </Array>
                    </mxGeometry>
                </mxCell>
                <mxCell id="85" value="&lt;h5&gt;lowest =num&lt;/h5&gt;" style="rounded=1;whiteSpace=wrap;html=1;absoluteArcSize=1;arcSize=14;strokeWidth=2;labelBackgroundColor=none;fontFamily=Tahoma;fillColor=#008a00;strokeColor=#005700;fontColor=#ffffff;" vertex="1" parent="1">
                    <mxGeometry x="590" y="1280" width="107.12" height="70" as="geometry"/>
                </mxCell>
                <mxCell id="91" value="get a number and print it backwards&amp;nbsp;&lt;br&gt;for example 1234 =&amp;gt; 4321&lt;br&gt;&lt;br&gt;* the input is a positive int" style="text;html=1;align=center;verticalAlign=middle;resizable=0;points=[];autosize=1;strokeColor=none;fillColor=none;fontColor=#FFFFFF;" vertex="1" parent="1">
                    <mxGeometry x="1230" y="975" width="220" height="70" as="geometry"/>
                </mxCell>
                <mxCell id="95" value="" style="edgeStyle=none;html=1;strokeColor=#FFFFFF;fontColor=#FFFFFF;" edge="1" parent="1" source="92" target="94">
                    <mxGeometry relative="1" as="geometry"/>
                </mxCell>
                <mxCell id="92" value="&lt;h5&gt;START&lt;/h5&gt;" style="strokeWidth=2;html=1;shape=mxgraph.flowchart.start_1;whiteSpace=wrap;labelBackgroundColor=none;fontFamily=Tahoma;fillColor=#d80073;strokeColor=#A50040;fontColor=#ffffff;" vertex="1" parent="1">
                    <mxGeometry x="1102.5" y="970" width="110" height="70" as="geometry"/>
                </mxCell>
                <mxCell id="129" style="edgeStyle=none;html=1;strokeColor=#FFFFFF;fontColor=#FFFFFF;" edge="1" parent="1" source="94" target="119">
                    <mxGeometry relative="1" as="geometry"/>
                </mxCell>
                <mxCell id="94" value="&lt;h5&gt;num&lt;/h5&gt;" style="verticalLabelPosition=middle;verticalAlign=middle;html=1;shape=card;whiteSpace=wrap;size=20;arcSize=12;labelBackgroundColor=none;fontFamily=Tahoma;fillColor=#d80073;labelPosition=center;align=center;strokeColor=#A50040;fontColor=#ffffff;" vertex="1" parent="1">
                    <mxGeometry x="1102.5" y="1080" width="105" height="70" as="geometry"/>
                </mxCell>
                <mxCell id="125" style="edgeStyle=none;html=1;entryX=0.5;entryY=0;entryDx=0;entryDy=0;entryPerimeter=0;strokeColor=#FFFFFF;fontColor=#FFFFFF;" edge="1" parent="1" source="99" target="101">
                    <mxGeometry relative="1" as="geometry">
                        <Array as="points">
                            <mxPoint x="1522" y="1370"/>
                        </Array>
                    </mxGeometry>
                </mxCell>
                <mxCell id="99" value="&lt;h5&gt;num2&lt;/h5&gt;" style="strokeWidth=2;html=1;shape=mxgraph.flowchart.document2;whiteSpace=wrap;size=0.25;labelBackgroundColor=none;fontFamily=Tahoma;fillColor=#d80073;strokeColor=#A50040;fontColor=#ffffff;" vertex="1" parent="1">
                    <mxGeometry x="1300" y="1335" width="110" height="70" as="geometry"/>
                </mxCell>
                <mxCell id="101" value="&lt;h5&gt;STOP&lt;/h5&gt;" style="strokeWidth=2;html=1;shape=mxgraph.flowchart.start_1;whiteSpace=wrap;labelBackgroundColor=none;fontFamily=Tahoma;fillColor=#d80073;strokeColor=#A50040;fontColor=#ffffff;" vertex="1" parent="1">
                    <mxGeometry x="1467.12" y="1450" width="110" height="70" as="geometry"/>
                </mxCell>
                <mxCell id="132" style="edgeStyle=none;html=1;strokeColor=#FFFFFF;fontColor=#FFFFFF;" edge="1" parent="1" source="113" target="115">
                    <mxGeometry relative="1" as="geometry"/>
                </mxCell>
                <mxCell id="113" value="&lt;h5&gt;digit = num % 10&lt;/h5&gt;" style="rounded=1;whiteSpace=wrap;html=1;absoluteArcSize=1;arcSize=14;strokeWidth=2;labelBackgroundColor=none;fontFamily=Tahoma;fillColor=#d80073;strokeColor=#A50040;fontColor=#ffffff;" vertex="1" parent="1">
                    <mxGeometry x="1093.94" y="1460" width="127.12" height="70" as="geometry"/>
                </mxCell>
                <mxCell id="133" style="edgeStyle=none;html=1;strokeColor=#FFFFFF;fontColor=#FFFFFF;" edge="1" parent="1" source="115" target="126">
                    <mxGeometry relative="1" as="geometry"/>
                </mxCell>
                <mxCell id="115" value="&lt;h5&gt;num = (int)(num/10)&lt;/h5&gt;" style="rounded=1;whiteSpace=wrap;html=1;absoluteArcSize=1;arcSize=14;strokeWidth=2;labelBackgroundColor=none;fontFamily=Tahoma;fillColor=#d80073;strokeColor=#A50040;fontColor=#ffffff;" vertex="1" parent="1">
                    <mxGeometry x="1091.44" y="1580" width="127.12" height="70" as="geometry"/>
                </mxCell>
                <mxCell id="130" value="" style="edgeStyle=none;html=1;strokeColor=#FFFFFF;fontColor=#FFFFFF;" edge="1" parent="1" source="119" target="121">
                    <mxGeometry relative="1" as="geometry"/>
                </mxCell>
                <mxCell id="119" value="&lt;h5&gt;num2 =0&lt;/h5&gt;" style="rounded=1;whiteSpace=wrap;html=1;absoluteArcSize=1;arcSize=14;strokeWidth=2;labelBackgroundColor=none;fontFamily=Tahoma;fillColor=#d80073;strokeColor=#A50040;fontColor=#ffffff;" vertex="1" parent="1">
                    <mxGeometry x="1092.19" y="1200" width="127.12" height="70" as="geometry"/>
                </mxCell>
                <mxCell id="124" style="edgeStyle=none;html=1;entryX=0;entryY=0.5;entryDx=0;entryDy=0;entryPerimeter=0;strokeColor=#FFFFFF;fontColor=#FFFFFF;" edge="1" parent="1" source="121" target="99">
                    <mxGeometry relative="1" as="geometry"/>
                </mxCell>
                <mxCell id="127" style="edgeStyle=none;html=1;strokeColor=#FFFFFF;fontColor=#FFFFFF;" edge="1" parent="1" source="121">
                    <mxGeometry relative="1" as="geometry">
                        <mxPoint x="1090" y="1760" as="targetPoint"/>
                        <Array as="points">
                            <mxPoint x="936" y="1370"/>
                            <mxPoint x="936" y="1760"/>
                        </Array>
                    </mxGeometry>
                </mxCell>
                <mxCell id="131" style="edgeStyle=none;html=1;strokeColor=#FFFFFF;fontColor=#FFFFFF;" edge="1" parent="1" source="121" target="113">
                    <mxGeometry relative="1" as="geometry"/>
                </mxCell>
                <mxCell id="121" value="&lt;h5&gt;num &amp;gt; 0&lt;/h5&gt;" style="strokeWidth=2;html=1;shape=mxgraph.flowchart.start_1;whiteSpace=wrap;labelBackgroundColor=none;fontFamily=Tahoma;fillColor=#d80073;strokeColor=#A50040;fontColor=#ffffff;" vertex="1" parent="1">
                    <mxGeometry x="1103.5" y="1320" width="104.5" height="100" as="geometry"/>
                </mxCell>
                <mxCell id="126" value="&lt;h5&gt;num2 = num2*10 + digit&lt;/h5&gt;" style="rounded=1;whiteSpace=wrap;html=1;absoluteArcSize=1;arcSize=14;strokeWidth=2;labelBackgroundColor=none;fontFamily=Tahoma;fillColor=#d80073;strokeColor=#A50040;fontColor=#ffffff;" vertex="1" parent="1">
                    <mxGeometry x="1091.44" y="1720" width="127.12" height="70" as="geometry"/>
                </mxCell>
            </root>
        </mxGraphModel>
    </diagram>
</mxfile>